<svg width="20" height="20" viewBox="0 0 20 20" fill="none" xmlns="http://www.w3.org/2000/svg">
<path d="M10 1.66667C8.35185 1.66667 6.74068 2.15541 5.37027 3.07109C3.99986 3.98677 2.93176 5.28826 2.30103 6.81098C1.6703 8.33369 1.50527 10.0092 1.82681 11.6258C2.14836 13.2423 2.94203 14.7271 4.10747 15.8926C5.27291 17.058 6.75776 17.8517 8.37427 18.1732C9.99078 18.4948 11.6663 18.3297 13.1891 17.699C14.7118 17.0683 16.0133 16.0002 16.9289 14.6298C17.8446 13.2593 18.3334 11.6482 18.3334 10C18.3334 8.90566 18.1178 7.82202 17.699 6.81098C17.2802 5.79993 16.6664 4.88127 15.8926 4.10745C15.1188 3.33363 14.2001 2.7198 13.1891 2.30101C12.178 1.88222 11.0944 1.66667 10 1.66667V1.66667ZM10 16.6667C8.68148 16.6667 7.39255 16.2757 6.29622 15.5431C5.19989 14.8106 4.34541 13.7694 3.84083 12.5512C3.33624 11.3331 3.20422 9.99261 3.46146 8.6994C3.71869 7.4062 4.35363 6.21831 5.28598 5.28596C6.21833 4.35361 7.40622 3.71867 8.69942 3.46144C9.99263 3.2042 11.3331 3.33622 12.5512 3.84081C13.7694 4.34539 14.8106 5.19988 15.5432 6.2962C16.2757 7.39253 16.6667 8.68146 16.6667 10C16.6667 11.7681 15.9643 13.4638 14.7141 14.7141C13.4638 15.9643 11.7681 16.6667 10 16.6667V16.6667Z" fill="black"/>
<path d="M12.2583 7.74168C12.1809 7.66357 12.0887 7.60157 11.9872 7.55927C11.8856 7.51696 11.7767 7.49518 11.6667 7.49518C11.5567 7.49518 11.4477 7.51696 11.3462 7.55927C11.2446 7.60157 11.1525 7.66357 11.075 7.74168L10 8.82501L8.92501 7.74168C8.76809 7.58476 8.55526 7.4966 8.33334 7.4966C8.11143 7.4966 7.8986 7.58476 7.74168 7.74168C7.58476 7.8986 7.4966 8.11143 7.4966 8.33334C7.4966 8.55526 7.58476 8.76809 7.74168 8.92501L8.82501 10L7.74168 11.075C7.66357 11.1525 7.60157 11.2446 7.55927 11.3462C7.51696 11.4477 7.49518 11.5567 7.49518 11.6667C7.49518 11.7767 7.51696 11.8856 7.55927 11.9872C7.60157 12.0887 7.66357 12.1809 7.74168 12.2583C7.81915 12.3365 7.91131 12.3984 8.01286 12.4408C8.11441 12.4831 8.22333 12.5048 8.33334 12.5048C8.44335 12.5048 8.55227 12.4831 8.65382 12.4408C8.75537 12.3984 8.84754 12.3365 8.92501 12.2583L10 11.175L11.075 12.2583C11.1525 12.3365 11.2446 12.3984 11.3462 12.4408C11.4477 12.4831 11.5567 12.5048 11.6667 12.5048C11.7767 12.5048 11.8856 12.4831 11.9872 12.4408C12.0887 12.3984 12.1809 12.3365 12.2583 12.2583C12.3365 12.1809 12.3984 12.0887 12.4408 11.9872C12.4831 11.8856 12.5048 11.7767 12.5048 11.6667C12.5048 11.5567 12.4831 11.4477 12.4408 11.3462C12.3984 11.2446 12.3365 11.1525 12.2583 11.075L11.175 10L12.2583 8.92501C12.3365 8.84754 12.3984 8.75537 12.4408 8.65382C12.4831 8.55227 12.5048 8.44335 12.5048 8.33334C12.5048 8.22333 12.4831 8.11441 12.4408 8.01286C12.3984 7.91131 12.3365 7.81915 12.2583 7.74168V7.74168Z" fill="black"/>
</svg>
