<svg width="20" height="20" viewBox="0 0 20 20" fill="none" xmlns="http://www.w3.org/2000/svg">
<path d="M14.8333 17.5C13.8608 17.5 12.9282 17.1137 12.2406 16.4261C11.553 15.7384 11.1666 14.8058 11.1666 13.8333V2.83333C11.1666 2.3471 11.3598 1.88079 11.7036 1.53697C12.0474 1.19315 12.5137 1 13 1H16.6666C17.1529 1 17.6192 1.19315 17.963 1.53697C18.3068 1.88079 18.5 2.3471 18.5 2.83333V13.8333C18.5 14.8058 18.1137 15.7384 17.426 16.4261C16.7384 17.1137 15.8058 17.5 14.8333 17.5ZM14.8333 17.5L3.83333 17.5C3.3471 17.5 2.88079 17.3068 2.53697 16.963C2.19315 16.6192 2 16.1529 2 15.6667V12C2 11.5138 2.19315 11.0474 2.53697 10.7036C2.88079 10.3598 3.3471 10.1667 3.83333 10.1667H5.94167M11.1666 4.9875L9.33331 3.15416C8.98951 2.81047 8.52328 2.61739 8.03714 2.61739C7.55101 2.61739 7.08477 2.81047 6.74097 3.15416L4.14864 5.7465C3.80494 6.0903 3.61187 6.55653 3.61187 7.04266C3.61187 7.5288 3.80494 7.99503 4.14864 8.33883L12.8098 17" stroke="black" stroke-width="2" stroke-linecap="round" stroke-linejoin="round"/>
<path fill-rule="evenodd" clip-rule="evenodd" d="M16 1H11V12.3333C11 14.9107 13.0893 17 15.6667 17C17.5076 17 19 15.5076 19 13.6667V4C19 2.34315 17.6569 1 16 1ZM15 14C15.5523 14 16 13.5523 16 13C16 12.4477 15.5523 12 15 12C14.4477 12 14 12.4477 14 13C14 13.5523 14.4477 14 15 14Z" fill="black"/>
</svg>
