<svg width="20" height="20" viewBox="0 0 20 20" fill="none" xmlns="http://www.w3.org/2000/svg">
<path d="M18.5 7.375H14.7894C15.1859 8.35748 15.0119 9.53984 14.2581 10.3407L10 14.865V16.4062C10 17.2865 10.6716 18 11.5 18H18.5C19.3284 18 20 17.2865 20 16.4062V8.96875C20 8.08854 19.3284 7.375 18.5 7.375ZM15 13.4844C14.5859 13.4844 14.25 13.1274 14.25 12.6875C14.25 12.2472 14.5859 11.8906 15 11.8906C15.4141 11.8906 15.75 12.2472 15.75 12.6875C15.75 13.1274 15.4141 13.4844 15 13.4844ZM13.5509 7.28535L8.08438 1.47713C7.48563 0.840957 6.51469 0.840957 5.91594 1.47713L0.449062 7.28535C-0.149687 7.92152 -0.149687 8.95314 0.449062 9.58932L5.91563 15.3979C6.51438 16.034 7.48531 16.034 8.08406 15.3979L13.5509 9.58965C14.1497 8.95314 14.1497 7.92152 13.5509 7.28535V7.28535ZM3 9.23438C2.58594 9.23438 2.25 8.87744 2.25 8.4375C2.25 7.99723 2.58594 7.64062 3 7.64062C3.41406 7.64062 3.75 7.99723 3.75 8.4375C3.75 8.87744 3.41406 9.23438 3 9.23438ZM7 13.4844C6.58594 13.4844 6.25 13.1274 6.25 12.6875C6.25 12.2472 6.58594 11.8906 7 11.8906C7.41406 11.8906 7.75 12.2472 7.75 12.6875C7.75 13.1274 7.41406 13.4844 7 13.4844ZM7 9.23438C6.58594 9.23438 6.25 8.87744 6.25 8.4375C6.25 7.99723 6.58594 7.64062 7 7.64062C7.41406 7.64062 7.75 7.99723 7.75 8.4375C7.75 8.87744 7.41406 9.23438 7 9.23438ZM7 4.98438C6.58594 4.98438 6.25 4.62744 6.25 4.1875C6.25 3.74723 6.58594 3.39062 7 3.39062C7.41406 3.39062 7.75 3.74723 7.75 4.1875C7.75 4.62744 7.41406 4.98438 7 4.98438ZM11 9.23438C10.5859 9.23438 10.25 8.87744 10.25 8.4375C10.25 7.99723 10.5859 7.64062 11 7.64062C11.4141 7.64062 11.75 7.99723 11.75 8.4375C11.75 8.87744 11.4141 9.23438 11 9.23438Z" fill="black"/>
</svg>
