<svg width="14" height="14" viewBox="0 0 14 14" fill="none" xmlns="http://www.w3.org/2000/svg">
<path fill-rule="evenodd" clip-rule="evenodd" d="M8 1C8 0.447715 7.55228 0 7 0C6.44772 0 6 0.447715 6 1V6.58579L3.70711 4.29289C3.31658 3.90237 2.68342 3.90237 2.29289 4.29289C1.90237 4.68342 1.90237 5.31658 2.29289 5.70711L6.29289 9.70711C6.68342 10.0976 7.31658 10.0976 7.70711 9.70711L11.7071 5.70711C12.0976 5.31658 12.0976 4.68342 11.7071 4.29289C11.3166 3.90237 10.6834 3.90237 10.2929 4.29289L8 6.58579V1ZM1 12C0.447715 12 0 12.4477 0 13C0 13.5523 0.447715 14 1 14H13C13.5523 14 14 13.5523 14 13C14 12.4477 13.5523 12 13 12H1Z" fill="black"/>
</svg>
