<svg width="20" height="20" viewBox="0 0 20 20" fill="none" xmlns="http://www.w3.org/2000/svg">
<path d="M17 2V6M15 4H19" stroke="black" stroke-linecap="round"/>
<path d="M1 4H5" stroke="black" stroke-linecap="round"/>
<path d="M1.30907 19C1.10302 19 1 18.7757 1 18.3272C1 17.918 1.0989 17.619 1.2967 17.4302C1.36264 17.3672 1.51099 17.3357 1.74176 17.3357C2.35165 17.3357 2.75137 17.1115 2.94093 16.663L9.23352 1.23607C9.29945 1.07869 9.46017 1 9.71566 1C10.2679 1 10.5769 1.07869 10.6429 1.23607L17.2321 17.3357H18.6786C18.8929 17.3357 19 17.5718 19 18.0439C19 18.4374 18.9382 18.6971 18.8146 18.823C18.6992 18.941 18.6003 19 18.5179 19H12.522C12.3159 19 12.2129 18.7836 12.2129 18.3508C12.2129 17.9416 12.2747 17.6702 12.3984 17.5364C12.522 17.4026 12.6291 17.3357 12.7198 17.3357C13.7418 17.3357 14.2527 17.2413 14.2527 17.0525C14.2527 16.9816 14.2198 16.8833 14.1538 16.7574L12.6827 13.1102H6.41484L4.69643 17.3357H6.8228C7.03709 17.3357 7.14423 17.5639 7.14423 18.0203C7.14423 18.4295 7.08654 18.6971 6.97115 18.823C6.86401 18.941 6.77335 19 6.69918 19H1.30907ZM7.14423 11.2925H11.9533L9.56731 5.34361L7.14423 11.2925Z" fill="black"/>
</svg>
