<svg width="20" height="20" viewBox="0 0 20 20" fill="none" xmlns="http://www.w3.org/2000/svg">
<path d="M16.0001 5C16.2653 5 16.5196 4.89465 16.7072 4.70711C16.8947 4.51957 17.0001 4.26522 17.0001 4C17.0001 3.73479 16.8947 3.48043 16.7072 3.2929C16.5196 3.10536 16.2653 3 16.0001 3L8.73206 3C8.55652 2.69599 8.30405 2.44354 8.00002 2.26801C7.69599 2.09249 7.35112 2.00009 7.00006 2.00009C6.649 2.00009 6.30413 2.09249 6.0001 2.26801C5.69608 2.44354 5.4436 2.69599 5.26806 3L4.00006 3C3.73484 3 3.48049 3.10536 3.29295 3.2929C3.10542 3.48043 3.00006 3.73479 3.00006 4C3.00006 4.26522 3.10542 4.51957 3.29295 4.70711C3.48049 4.89465 3.73484 5 4.00006 5L5.26806 5C5.4436 5.30402 5.69608 5.55647 6.0001 5.73199C6.30413 5.90751 6.649 5.99991 7.00006 5.99991C7.35112 5.99991 7.69599 5.90751 8.00002 5.73199C8.30404 5.55647 8.55652 5.30402 8.73206 5L16.0001 5Z" fill="black"/>
<path d="M16.0001 11C16.2653 11 16.5196 10.8946 16.7072 10.7071C16.8947 10.5196 17.0001 10.2652 17.0001 10C17.0001 9.73479 16.8947 9.48043 16.7072 9.2929C16.5196 9.10536 16.2653 9 16.0001 9L14.7321 9C14.5565 8.69599 14.304 8.44354 14 8.26802C13.696 8.0925 13.3511 8.00009 13.0001 8.00009C12.649 8.00009 12.3041 8.0925 12.0001 8.26802C11.6961 8.44354 11.4436 8.69599 11.2681 9L4.00006 9C3.73484 9 3.48049 9.10536 3.29295 9.2929C3.10542 9.48043 3.00006 9.73479 3.00006 10C3.00006 10.2652 3.10542 10.5196 3.29295 10.7071C3.48049 10.8946 3.73484 11 4.00006 11L11.2681 11C11.4436 11.304 11.6961 11.5565 12.0001 11.732C12.3041 11.9075 12.649 11.9999 13.0001 11.9999C13.3511 11.9999 13.696 11.9075 14 11.732C14.304 11.5565 14.5565 11.304 14.7321 11L16.0001 11Z" fill="black"/>
<path d="M17.0001 16C17.0001 16.2652 16.8947 16.5196 16.7072 16.7071C16.5196 16.8946 16.2653 17 16.0001 17L8.73206 17C8.55652 17.304 8.30404 17.5565 8.00002 17.732C7.69599 17.9075 7.35112 17.9999 7.00006 17.9999C6.649 17.9999 6.30413 17.9075 6.0001 17.732C5.69608 17.5565 5.4436 17.304 5.26806 17L4.00006 17C3.73484 17 3.48049 16.8946 3.29295 16.7071C3.10542 16.5196 3.00006 16.2652 3.00006 16C3.00006 15.7348 3.10542 15.4804 3.29295 15.2929C3.48049 15.1054 3.73484 15 4.00006 15L5.26806 15C5.4436 14.696 5.69608 14.4435 6.0001 14.268C6.30413 14.0925 6.649 14.0001 7.00006 14.0001C7.35112 14.0001 7.69599 14.0925 8.00002 14.268C8.30405 14.4435 8.55652 14.696 8.73206 15L16.0001 15C16.2653 15 16.5196 15.1054 16.7072 15.2929C16.8947 15.4804 17.0001 15.7348 17.0001 16V16Z" fill="black"/>
</svg>
