<svg width="20" height="20" viewBox="0 0 20 20" fill="none" xmlns="http://www.w3.org/2000/svg">
<path d="M13.1726 17.3136C13.3909 17.3136 13.5 17.5807 13.5 18.115C13.5 18.4578 13.4353 18.693 13.306 18.8206C13.1847 18.9402 13.0837 19 13.0028 19H6.56386C6.36985 19 6.27284 18.7728 6.27284 18.3183C6.27284 17.9116 6.38197 17.6047 6.60024 17.3973C6.66492 17.3336 6.79426 17.3017 6.98828 17.3017H7.02466C7.05699 17.3096 7.09337 17.3136 7.13379 17.3136C7.31973 17.3136 7.5097 17.3017 7.70372 17.2777C7.93816 17.2618 8.12005 17.2339 8.24939 17.194C8.46766 17.1302 8.5768 16.9987 8.5768 16.7993V2.84186H4.15845L3.6249 4.61196C3.55214 4.81927 3.35004 4.92292 3.01859 4.92292C2.61439 4.91495 2.30719 4.79136 2.09701 4.55216C2.03234 4.47243 2 4.39269 2 4.31296V4.26512L2.46079 1H17.5392L18 4.26512V4.31296C18 4.6 17.7777 4.79136 17.3331 4.88704C17.2361 4.91096 17.135 4.92292 17.0299 4.92292H16.9572C16.6419 4.92292 16.4479 4.81927 16.3751 4.61196L15.8416 2.84186H11.1354V17.3136H13.1726Z" fill="black"/>
</svg>
