<svg width="20" height="20" viewBox="0 0 20 20" fill="none" xmlns="http://www.w3.org/2000/svg">
<path d="M12.125 14.8984C12.2656 14.8984 12.3359 15.0729 12.3359 15.4219C12.3359 15.6458 12.2943 15.7995 12.2109 15.8828C12.1328 15.9609 12.0677 16 12.0156 16H7.86719C7.74219 16 7.67969 15.8516 7.67969 15.5547C7.67969 15.2891 7.75 15.0885 7.89062 14.9531C7.93229 14.9115 8.01562 14.8906 8.14062 14.8906H8.16406C8.1849 14.8958 8.20833 14.8984 8.23438 14.8984C8.35417 14.8984 8.47656 14.8906 8.60156 14.875C8.7526 14.8646 8.86979 14.8464 8.95312 14.8203C9.09375 14.7786 9.16406 14.6927 9.16406 14.5625V5.44531H6.54688L6.20312 6.60156C6.15625 6.73698 6.02604 6.80469 5.8125 6.80469C5.55208 6.79948 5.35417 6.71875 5.21875 6.5625C5.17708 6.51042 5.15625 6.45833 5.15625 6.40625V6.375L5.45312 4.24219H14.5234L14.8203 6.375V6.40625C14.8203 6.59375 14.6771 6.71875 14.3906 6.78125C14.3281 6.79688 14.263 6.80469 14.1953 6.80469H14.1484C13.9453 6.80469 13.8203 6.73698 13.7734 6.60156L13.4297 5.44531H10.8125V14.8984H12.125Z" fill="black"/>
</svg>
